# Blender 4.2.0
# www.blender.org
mtllib Apple.mtl
o Cylinder
v -0.033904 -0.228762 -0.058724
v 0.000000 0.089145 -0.115359
v -0.058724 -0.228762 -0.033904
v 0.057679 0.089145 -0.099904
v -0.067809 -0.228762 0.000000
v 0.099904 0.089145 -0.057679
v -0.058724 -0.228762 0.033904
v 0.115359 0.089145 -0.000000
v -0.033904 -0.228762 0.058724
v 0.099904 0.089145 0.057679
v 0.000000 -0.228762 0.067809
v 0.057679 0.089145 0.099904
v 0.033904 -0.228762 0.058724
v 0.000000 0.089145 0.115359
v 0.058724 -0.228762 0.033904
v -0.057679 0.089145 0.099904
v 0.067809 -0.228762 0.000000
v -0.099904 0.089145 0.057679
v 0.058724 -0.228762 -0.033904
v -0.115359 0.089145 -0.000000
v 0.033904 -0.228762 -0.058724
v -0.099904 0.089145 -0.057679
v 0.000000 -0.228762 -0.067809
v -0.057680 0.089145 -0.099904
v 0.000000 -0.197941 -0.119060
v 0.000000 -0.138833 -0.164012
v 0.000000 -0.051135 -0.176659
v 0.000000 0.032836 -0.154105
v 0.077053 0.032836 -0.133459
v 0.088329 -0.051135 -0.152991
v 0.082006 -0.138833 -0.142039
v 0.059530 -0.197941 -0.103109
v 0.133459 0.032836 -0.077053
v 0.152991 -0.051135 -0.088330
v 0.142039 -0.138833 -0.082006
v 0.103109 -0.197941 -0.059530
v 0.154105 0.032836 -0.000000
v 0.176659 -0.051135 0.000000
v 0.164012 -0.138833 0.000000
v 0.119060 -0.197941 0.000000
v 0.133459 0.032836 0.077053
v 0.152991 -0.051135 0.088329
v 0.142039 -0.138833 0.082006
v 0.103109 -0.197941 0.059530
v 0.077053 0.032836 0.133459
v 0.088329 -0.051135 0.152991
v 0.082006 -0.138833 0.142038
v 0.059530 -0.197941 0.103109
v 0.000000 0.032836 0.154105
v 0.000000 -0.051135 0.176659
v 0.000000 -0.138833 0.164012
v 0.000000 -0.197941 0.119059
v -0.077053 0.032836 0.133459
v -0.088329 -0.051135 0.152991
v -0.082006 -0.138833 0.142039
v -0.059530 -0.197941 0.103109
v -0.133459 0.032836 0.077053
v -0.152991 -0.051135 0.088329
v -0.142038 -0.138833 0.082006
v -0.103109 -0.197941 0.059530
v -0.154105 0.032836 -0.000000
v -0.176659 -0.051135 0.000000
v -0.164012 -0.138833 0.000000
v -0.119060 -0.197941 0.000000
v -0.133459 0.032836 -0.077053
v -0.152991 -0.051135 -0.088329
v -0.142039 -0.138833 -0.082006
v -0.103109 -0.197941 -0.059530
v -0.077053 0.032836 -0.133459
v -0.088330 -0.051135 -0.152991
v -0.082006 -0.138833 -0.142038
v -0.059530 -0.197941 -0.103109
v 0.000000 0.102426 -0.076815
v 0.038408 0.102426 -0.066524
v 0.066524 0.102426 -0.038408
v 0.076815 0.102426 -0.000000
v 0.066524 0.102426 0.038408
v 0.038408 0.102426 0.066524
v 0.000000 0.102426 0.076815
v -0.038408 0.102426 0.066524
v -0.066524 0.102426 0.038408
v -0.076815 0.102426 -0.000000
v -0.066524 0.102426 -0.038408
v -0.038408 0.102426 -0.066524
v 0.000000 0.093455 -0.050938
v 0.025469 0.093455 -0.044114
v 0.044114 0.093455 -0.025469
v 0.050938 0.093455 -0.000000
v 0.044114 0.093455 0.025469
v 0.025469 0.093455 0.044114
v 0.000000 0.093455 0.050938
v -0.025469 0.093455 0.044114
v -0.044114 0.093455 0.025469
v -0.050938 0.093455 -0.000000
v -0.044114 0.093455 -0.025469
v -0.025469 0.093455 -0.044114
v 0.000000 0.085180 -0.027160
v 0.013580 0.085180 -0.023521
v 0.023521 0.085180 -0.013580
v 0.027160 0.085180 -0.000000
v 0.023521 0.085180 0.013580
v 0.013580 0.085180 0.023521
v 0.000000 0.085180 0.027160
v -0.013580 0.085180 0.023521
v -0.023521 0.085180 0.013580
v -0.027160 0.085180 -0.000000
v -0.023521 0.085180 -0.013580
v -0.013580 0.085180 -0.023521
v 0.000000 0.082823 -0.006161
v 0.003080 0.082823 -0.005335
v 0.005335 0.082823 -0.003080
v 0.006161 0.082823 -0.000000
v 0.005335 0.082823 0.003080
v 0.003080 0.082823 0.005335
v 0.000000 0.082823 0.006161
v -0.003080 0.082823 0.005335
v -0.005335 0.082823 0.003080
v -0.006161 0.082823 -0.000000
v -0.005335 0.082823 -0.003080
v -0.003080 0.082823 -0.005335
v 0.000000 0.130804 -0.002889
v 0.001445 0.130804 -0.002502
v 0.002502 0.130804 -0.001445
v 0.002889 0.130804 -0.000000
v 0.002502 0.130804 0.001445
v 0.001445 0.130804 0.002502
v 0.000000 0.130804 0.002889
v -0.001445 0.130804 0.002502
v -0.002502 0.130804 0.001445
v -0.002889 0.130804 -0.000000
v -0.002502 0.130804 -0.001445
v -0.001445 0.130804 -0.002502
vn 0.2155 0.5535 -0.8044
vn 0.5889 0.5535 -0.5889
vn 0.8044 0.5535 -0.2155
vn 0.8044 0.5535 0.2155
vn 0.5889 0.5535 0.5889
vn 0.2155 0.5535 0.8044
vn -0.2155 0.5535 0.8044
vn -0.5889 0.5535 0.5889
vn -0.8044 0.5535 0.2155
vn -0.8044 0.5535 -0.2155
vn 0.2376 0.9419 -0.2376
vn -0.5889 0.5535 -0.5889
vn -0.2155 0.5535 -0.8044
vn -0.3245 0.9419 -0.0870
vn 0.5105 -0.8489 -0.1368
vn -0.2086 -0.5920 -0.7785
vn -0.2563 -0.1380 -0.9567
vn -0.2505 0.2511 -0.9350
vn 0.3737 -0.8489 -0.3737
vn -0.5699 -0.5920 -0.5699
vn -0.7003 -0.1380 -0.7003
vn -0.6845 0.2511 -0.6844
vn -0.1368 -0.8489 0.5105
vn -0.7785 -0.5920 -0.2086
vn -0.9567 -0.1380 -0.2563
vn -0.9350 0.2511 -0.2505
vn 0.1368 -0.8489 -0.5105
vn -0.7785 -0.5920 0.2086
vn -0.9567 -0.1380 0.2563
vn -0.9350 0.2511 0.2505
vn -0.1368 -0.8489 -0.5105
vn -0.5699 -0.5920 0.5699
vn -0.7003 -0.1380 0.7003
vn -0.6844 0.2511 0.6844
vn 0.1368 -0.8489 0.5105
vn -0.2086 -0.5920 0.7785
vn -0.2563 -0.1380 0.9567
vn -0.2505 0.2511 0.9350
vn -0.3737 -0.8489 -0.3737
vn 0.2086 -0.5920 0.7785
vn 0.2563 -0.1380 0.9567
vn 0.2505 0.2511 0.9350
vn 0.3737 -0.8489 0.3737
vn 0.5699 -0.5920 0.5699
vn 0.7003 -0.1380 0.7003
vn 0.6844 0.2511 0.6844
vn -0.5105 -0.8489 -0.1368
vn 0.7785 -0.5920 0.2086
vn 0.9567 -0.1380 0.2563
vn 0.9350 0.2511 0.2505
vn 0.5105 -0.8489 0.1368
vn 0.7785 -0.5920 -0.2086
vn 0.9567 -0.1380 -0.2563
vn 0.9350 0.2511 -0.2505
vn -0.5105 -0.8489 0.1368
vn 0.5699 -0.5920 -0.5699
vn 0.7003 -0.1380 -0.7003
vn 0.6844 0.2511 -0.6845
vn -0.3737 -0.8489 0.3737
vn 0.2086 -0.5920 -0.7785
vn 0.2563 -0.1380 -0.9567
vn 0.2505 0.2511 -0.9350
vn -0.3245 0.9419 0.0870
vn -0.2376 0.9419 0.2376
vn -0.0870 0.9419 0.3245
vn 0.0870 0.9419 0.3245
vn 0.2376 0.9419 0.2376
vn 0.3245 0.9419 0.0870
vn -0.0870 0.9419 -0.3245
vn 0.0870 0.9419 -0.3245
vn 0.3245 0.9419 -0.0870
vn -0.2376 0.9419 -0.2376
vn 0.3263 0.9412 0.0874
vn 0.0874 0.9412 -0.3263
vn -0.3263 0.9412 -0.0874
vn 0.2389 0.9412 0.2389
vn -0.0874 0.9412 0.3263
vn 0.2389 0.9412 -0.2389
vn -0.2389 0.9412 -0.2389
vn 0.0874 0.9412 0.3263
vn -0.2389 0.9412 0.2389
vn 0.3263 0.9412 -0.0874
vn -0.0874 0.9412 -0.3263
vn -0.3263 0.9412 0.0874
vn -0.3274 0.9408 0.0877
vn 0.3274 0.9408 0.0877
vn 0.0877 0.9408 -0.3274
vn -0.3274 0.9408 -0.0877
vn 0.2397 0.9408 0.2397
vn -0.0877 0.9408 0.3274
vn 0.2397 0.9408 -0.2397
vn -0.2397 0.9408 -0.2397
vn 0.0877 0.9408 0.3274
vn -0.2397 0.9408 0.2397
vn 0.3274 0.9408 -0.0877
vn -0.0877 0.9408 -0.3274
vn -0.1115 0.9933 0.0299
vn 0.1115 0.9933 0.0299
vn 0.0299 0.9933 -0.1115
vn -0.1115 0.9933 -0.0299
vn 0.0816 0.9933 0.0816
vn -0.0299 0.9933 0.1115
vn 0.0816 0.9933 -0.0816
vn -0.0816 0.9933 -0.0816
vn 0.0299 0.9933 0.1115
vn -0.0816 0.9933 0.0816
vn 0.1115 0.9933 -0.0299
vn -0.0299 0.9933 -0.1115
vn 0.2584 0.0657 0.9638
vn 0.9638 0.0657 -0.2584
vn -0.9638 0.0657 -0.2584
vn -0.2584 0.0657 0.9638
vn 0.9638 0.0657 0.2584
vn -0.7056 0.0657 -0.7056
vn 0.2584 0.0657 -0.9638
vn -0.7056 0.0657 0.7056
vn 0.7056 0.0657 0.7056
vn -0.2584 0.0657 -0.9638
vn 0.7056 0.0657 -0.7056
vn -0.9638 0.0657 0.2584
vn -0.0000 1.0000 -0.0000
vn -0.0000 -1.0000 -0.0000
vt 0.126454 0.549636
vt 0.137478 0.474665
vt 0.203121 0.474665
vt 0.214145 0.549636
vt 0.259970 0.470167
vt 0.290089 0.543627
vt 0.290089 0.322277
vt 0.259970 0.395738
vt 0.203121 0.391240
vt 0.214145 0.316268
vt 0.137478 0.391240
vt 0.126454 0.316268
vt 0.080629 0.395738
vt 0.050510 0.322277
vt 0.391110 0.543627
vt 0.421228 0.470167
vt 0.478077 0.474665
vt 0.467053 0.549636
vt 0.543720 0.474665
vt 0.554744 0.549636
vt 0.600569 0.470167
vt 0.630688 0.543627
vt 0.391109 0.110675
vt 0.421228 0.037214
vt 0.478077 0.041713
vt 0.467053 0.116684
vt 0.543720 0.041713
vt 0.554744 0.116684
vt 0.869491 0.470167
vt 0.926340 0.507203
vt 0.896379 0.541012
vt 0.858525 0.516350
vt 0.600569 0.037214
vt 0.630688 0.110675
vt 0.050510 0.543627
vt 0.080629 0.470167
vt 0.926340 0.709577
vt 0.869491 0.746614
vt 0.858525 0.700431
vt 0.896380 0.675769
vt 0.874474 0.037214
vt 0.933146 0.075439
vt 0.893308 0.120394
vt 0.859892 0.098623
vt 0.077752 0.824048
vt 0.042810 0.756058
vt 0.123635 0.762453
vt 0.136425 0.828690
vt 0.032979 0.649423
vt 0.120037 0.656312
vt 0.806724 0.037214
vt 0.821306 0.098623
vt 0.544773 0.395738
vt 0.557563 0.329501
vt 0.638388 0.323106
vt 0.603446 0.391095
vt 0.561161 0.223360
vt 0.648219 0.216471
vt 0.933146 0.284305
vt 0.874474 0.322530
vt 0.859892 0.261121
vt 0.893308 0.239351
vt 0.477024 0.395738
vt 0.464234 0.329501
vt 0.460636 0.223360
vt 0.748052 0.075439
vt 0.787890 0.120394
vt 0.418351 0.391095
vt 0.383409 0.323106
vt 0.373578 0.216471
vt 0.714177 0.141647
vt 0.768597 0.158102
vt 0.544773 0.828690
vt 0.557563 0.762453
vt 0.638388 0.756058
vt 0.603446 0.824048
vt 0.561161 0.656312
vt 0.648219 0.649423
vt 0.967021 0.218097
vt 0.912601 0.201643
vt 0.477024 0.828690
vt 0.464234 0.762453
vt 0.460636 0.656312
vt 0.714177 0.218097
vt 0.768597 0.201643
vt 0.418351 0.824048
vt 0.383409 0.756058
vt 0.373578 0.649423
vt 0.967021 0.141647
vt 0.912601 0.158102
vt 0.136425 0.037214
vt 0.123635 0.103451
vt 0.042810 0.109847
vt 0.077752 0.041857
vt 0.120037 0.209593
vt 0.032979 0.216481
vt 0.748052 0.284305
vt 0.787890 0.239351
vt 0.204174 0.037214
vt 0.216964 0.103451
vt 0.220562 0.209593
vt 0.262847 0.041857
vt 0.297789 0.109847
vt 0.307620 0.216481
vt 0.806724 0.322530
vt 0.821306 0.261121
vt 0.204174 0.828690
vt 0.216964 0.762453
vt 0.297789 0.756058
vt 0.262847 0.824048
vt 0.220562 0.656312
vt 0.307620 0.649423
vt 0.803848 0.746614
vt 0.814814 0.700431
vt 0.746999 0.709577
vt 0.776960 0.675769
vt 0.714177 0.645428
vt 0.755104 0.633053
vt 0.714177 0.571354
vt 0.755104 0.583728
vt 0.746999 0.507204
vt 0.776959 0.541012
vt 0.803848 0.470167
vt 0.814814 0.516350
vt 0.959162 0.571353
vt 0.959162 0.645427
vt 0.918235 0.633053
vt 0.918235 0.583728
vt 0.851162 0.669425
vt 0.876265 0.653071
vt 0.782581 0.624745
vt 0.797074 0.653071
vt 0.822177 0.547356
vt 0.797074 0.563710
vt 0.890758 0.624745
vt 0.890758 0.592036
vt 0.876265 0.563710
vt 0.822177 0.669425
vt 0.782581 0.592036
vt 0.851162 0.547356
vt 0.844397 0.575848
vt 0.828942 0.575848
vt 0.844397 0.640933
vt 0.857781 0.632213
vt 0.807830 0.617110
vt 0.815558 0.632214
vt 0.815558 0.584567
vt 0.865509 0.617110
vt 0.865509 0.599671
vt 0.857781 0.584567
vt 0.828942 0.640933
vt 0.807830 0.599671
vt 0.838422 0.601009
vt 0.834917 0.601009
vt 0.838422 0.615772
vt 0.841458 0.613794
vt 0.830128 0.610368
vt 0.831881 0.613794
vt 0.831881 0.602987
vt 0.843211 0.610368
vt 0.843211 0.606412
vt 0.841458 0.602987
vt 0.834917 0.615772
vt 0.830128 0.606413
vt 0.111550 0.962786
vt 0.108514 0.962546
vt 0.111057 0.903119
vt 0.112481 0.903231
vt 0.039520 0.903119
vt 0.042556 0.903359
vt 0.040014 0.962786
vt 0.038590 0.962673
vt 0.792748 0.821043
vt 0.796254 0.821043
vt 0.795323 0.880597
vt 0.793679 0.880597
vt 0.115056 0.962786
vt 0.114125 0.903231
vt 0.036015 0.903119
vt 0.036946 0.962673
vt 0.789712 0.821283
vt 0.792255 0.880710
vt 0.720719 0.880710
vt 0.717213 0.880710
vt 0.718144 0.821155
vt 0.719788 0.821155
vt 0.118092 0.962546
vt 0.115549 0.903119
vt 0.032979 0.903359
vt 0.035522 0.962786
vt 0.714177 0.880470
vt 0.716720 0.821043
vt 0.723754 0.880470
vt 0.721212 0.821043
vt 0.799290 0.821283
vt 0.796747 0.880710
vt 0.184872 0.909115
vt 0.184050 0.907508
vt 0.184050 0.905653
vt 0.184872 0.904046
vt 0.186295 0.903119
vt 0.187940 0.903119
vt 0.189363 0.904046
vt 0.190185 0.905653
vt 0.190185 0.907508
vt 0.189363 0.909115
vt 0.187940 0.910043
vt 0.186295 0.910043
s 0
usemtl Apple_Material
f 28/1/1 2/2/1 4/3/1 29/4/1
f 29/4/2 4/3/2 6/5/2 33/6/2
f 33/7/3 6/8/3 8/9/3 37/10/3
f 37/10/4 8/9/4 10/11/4 41/12/4
f 41/12/5 10/11/5 12/13/5 45/14/5
f 45/15/6 12/16/6 14/17/6 49/18/6
f 49/18/7 14/17/7 16/19/7 53/20/7
f 53/20/8 16/19/8 18/21/8 57/22/8
f 57/23/9 18/24/9 20/25/9 61/26/9
f 61/26/10 20/25/10 22/27/10 65/28/10
f 6/29/11 4/30/11 74/31/11 75/32/11
f 65/28/12 22/27/12 24/33/12 69/34/12
f 69/35/13 24/36/13 2/2/13 28/1/13
f 22/37/14 20/38/14 82/39/14 83/40/14
f 36/41/15 40/42/15 17/43/15 19/44/15
f 72/45/16 71/46/16 26/47/16 25/48/16
f 71/46/17 70/49/17 27/50/17 26/47/17
f 70/49/18 69/35/18 28/1/18 27/50/18
f 32/51/19 36/41/19 19/44/19 21/52/19
f 68/53/20 67/54/20 71/55/20 72/56/20
f 67/54/21 66/57/21 70/58/21 71/55/21
f 66/57/22 65/28/22 69/34/22 70/58/22
f 52/59/23 56/60/23 9/61/23 11/62/23
f 64/63/24 63/64/24 67/54/24 68/53/24
f 63/64/25 62/65/25 66/57/25 67/54/25
f 62/65/26 61/26/26 65/28/26 66/57/26
f 25/66/27 32/51/27 21/52/27 23/67/27
f 60/68/28 59/69/28 63/64/28 64/63/28
f 59/69/29 58/70/29 62/65/29 63/64/29
f 58/70/30 57/23/30 61/26/30 62/65/30
f 72/71/31 25/66/31 23/67/31 1/72/31
f 56/73/32 55/74/32 59/75/32 60/76/32
f 55/74/33 54/77/33 58/78/33 59/75/33
f 54/77/34 53/20/34 57/22/34 58/78/34
f 48/79/35 52/59/35 11/62/35 13/80/35
f 52/81/36 51/82/36 55/74/36 56/73/36
f 51/82/37 50/83/37 54/77/37 55/74/37
f 50/83/38 49/18/38 53/20/38 54/77/38
f 68/84/39 72/71/39 1/72/39 3/85/39
f 48/86/40 47/87/40 51/82/40 52/81/40
f 47/87/41 46/88/41 50/83/41 51/82/41
f 46/88/42 45/15/42 49/18/42 50/83/42
f 44/89/43 48/79/43 13/80/43 15/90/43
f 44/91/44 43/92/44 47/93/44 48/94/44
f 43/92/45 42/95/45 46/96/45 47/93/45
f 42/95/46 41/12/46 45/14/46 46/96/46
f 64/97/47 68/84/47 3/85/47 5/98/47
f 40/99/48 39/100/48 43/92/48 44/91/48
f 39/100/49 38/101/49 42/95/49 43/92/49
f 38/101/50 37/10/50 41/12/50 42/95/50
f 40/42/51 44/89/51 15/90/51 17/43/51
f 36/102/52 35/103/52 39/100/52 40/99/52
f 35/103/53 34/104/53 38/101/53 39/100/53
f 34/104/54 33/7/54 37/10/54 38/101/54
f 60/105/55 64/97/55 5/98/55 7/106/55
f 32/107/56 31/108/56 35/109/56 36/110/56
f 31/108/57 30/111/57 34/112/57 35/109/57
f 30/111/58 29/4/58 33/6/58 34/112/58
f 56/60/59 60/105/59 7/106/59 9/61/59
f 25/48/60 26/47/60 31/108/60 32/107/60
f 26/47/61 27/50/61 30/111/61 31/108/61
f 27/50/62 28/1/62 29/4/62 30/111/62
f 20/38/63 18/113/63 81/114/63 82/39/63
f 18/113/64 16/115/64 80/116/64 81/114/64
f 16/115/65 14/117/65 79/118/65 80/116/65
f 14/117/66 12/119/66 78/120/66 79/118/66
f 12/119/67 10/121/67 77/122/67 78/120/67
f 10/121/68 8/123/68 76/124/68 77/122/68
f 2/125/69 24/126/69 84/127/69 73/128/69
f 4/30/70 2/125/70 73/128/70 74/31/70
f 8/123/71 6/29/71 75/32/71 76/124/71
f 24/126/72 22/37/72 83/40/72 84/127/72
f 83/40/73 82/39/73 94/129/73 95/130/73
f 80/116/74 79/118/74 91/131/74 92/132/74
f 77/122/75 76/124/75 88/133/75 89/134/75
f 84/127/76 83/40/76 95/130/76 96/135/76
f 74/31/77 73/128/77 85/136/77 86/137/77
f 81/114/78 80/116/78 92/132/78 93/138/78
f 78/120/79 77/122/79 89/134/79 90/139/79
f 73/128/80 84/127/80 96/135/80 85/136/80
f 75/32/81 74/31/81 86/137/81 87/140/81
f 82/39/82 81/114/82 93/138/82 94/129/82
f 79/118/83 78/120/83 90/139/83 91/131/83
f 76/124/84 75/32/84 87/140/84 88/133/84
f 88/133/85 87/140/85 99/141/85 100/142/85
f 95/130/86 94/129/86 106/143/86 107/144/86
f 92/132/87 91/131/87 103/145/87 104/146/87
f 89/134/88 88/133/88 100/142/88 101/147/88
f 96/135/89 95/130/89 107/144/89 108/148/89
f 86/137/90 85/136/90 97/149/90 98/150/90
f 93/138/91 92/132/91 104/146/91 105/151/91
f 90/139/92 89/134/92 101/147/92 102/152/92
f 85/136/93 96/135/93 108/148/93 97/149/93
f 87/140/94 86/137/94 98/150/94 99/141/94
f 94/129/95 93/138/95 105/151/95 106/143/95
f 91/131/96 90/139/96 102/152/96 103/145/96
f 100/142/97 99/141/97 111/153/97 112/154/97
f 107/144/98 106/143/98 118/155/98 119/156/98
f 104/146/99 103/145/99 115/157/99 116/158/99
f 101/147/100 100/142/100 112/154/100 113/159/100
f 108/148/101 107/144/101 119/156/101 120/160/101
f 98/150/102 97/149/102 109/161/102 110/162/102
f 105/151/103 104/146/103 116/158/103 117/163/103
f 102/152/104 101/147/104 113/159/104 114/164/104
f 97/149/105 108/148/105 120/160/105 109/161/105
f 99/141/106 98/150/106 110/162/106 111/153/106
f 106/143/107 105/151/107 117/163/107 118/155/107
f 103/145/108 102/152/108 114/164/108 115/157/108
f 115/165/109 114/166/109 126/167/109 127/168/109
f 112/169/110 111/170/110 123/171/110 124/172/110
f 119/173/111 118/174/111 130/175/111 131/176/111
f 116/177/112 115/165/112 127/168/112 128/178/112
f 113/179/113 112/169/113 124/172/113 125/180/113
f 120/181/114 119/173/114 131/176/114 132/182/114
f 110/183/115 109/184/115 121/185/115 122/186/115
f 117/187/116 116/177/116 128/178/116 129/188/116
f 114/189/117 113/179/117 125/180/117 126/190/117
f 109/184/118 120/191/118 132/192/118 121/185/118
f 111/193/119 110/183/119 122/186/119 123/194/119
f 118/174/120 117/195/120 129/196/120 130/175/120
f 122/197/121 121/198/121 132/199/121 131/200/121 130/201/121 129/202/121 128/203/121 127/204/121 126/205/121 125/206/121 124/207/121 123/208/121
f 23/67/122 21/52/122 19/44/122 17/43/122 15/90/122 13/80/122 11/62/122 9/61/122 7/106/122 5/98/122 3/85/122 1/72/122
