# Blender 4.2.0
# www.blender.org
mtllib Coconut .mtl
o Coconut
v -0.554667 4.667082 2.945984
v -0.889437 4.217436 3.035336
v 0.000000 3.328000 3.437422
v 0.000000 4.585854 3.035336
v -0.805745 5.273240 2.354356
v 0.000000 5.391088 2.376694
v -1.458824 4.786824 2.376694
v -1.339084 3.882666 2.945984
v -1.257855 3.327999 3.035336
v -1.945240 4.133743 2.354356
v -2.063089 3.327999 2.376693
v -1.339084 2.773333 2.945983
v -0.889437 2.438561 3.035336
v -1.945240 2.522254 2.354357
v -1.458824 1.869175 2.376694
v -0.554667 1.988916 2.945984
v 0.000000 2.070144 3.035335
v -0.805745 1.382759 2.354356
v 0.000000 1.264910 2.376694
v 0.554667 1.988916 2.945984
v 0.889437 2.438561 3.035336
v 0.805745 1.382759 2.354356
v 1.458824 1.869175 2.376694
v 1.339084 2.773332 2.945983
v 1.257855 3.327999 3.035336
v 1.945240 2.522254 2.354357
v 2.063089 3.327999 2.376693
v 1.339084 3.882664 2.945984
v 0.889438 4.217436 3.035336
v 1.945241 4.133742 2.354356
v 1.458825 4.786822 2.376694
v 0.554667 4.667082 2.945984
v 0.805745 5.273239 2.354356
v -1.004313 5.752625 1.294288
v 0.000000 5.960625 1.294288
v -1.090469 5.960624 -0.000001
v 0.000000 6.186468 0.000000
v -2.021243 5.349242 -0.000000
v -1.861547 5.189547 1.294288
v -2.424625 4.332312 1.294288
v -2.632626 4.418468 -0.000001
v -2.858469 3.327999 -0.000000
v -2.632626 3.327999 1.294288
v -2.424625 2.323686 1.294288
v -2.632625 2.237530 -0.000001
v -2.021243 1.306756 -0.000001
v -1.861547 1.466452 1.294288
v -1.004313 0.903374 1.294288
v -1.090469 0.695373 -0.000001
v 0.000000 0.469530 0.000000
v 0.000000 0.695374 1.294288
v 1.004313 0.903374 1.294288
v 1.090469 0.695374 -0.000001
v 2.021243 1.306756 -0.000001
v 1.861547 1.466452 1.294288
v 2.424625 2.323686 1.294288
v 2.632625 2.237529 -0.000001
v 2.858470 3.327998 -0.000000
v 2.632626 3.327998 1.294288
v 2.424626 4.332311 1.294288
v 2.632626 4.418468 -0.000001
v 2.021244 5.349241 -0.000000
v 1.861548 5.189546 1.294288
v 1.004313 5.752624 1.294288
v 1.090470 5.960624 -0.000001
v -1.004313 5.752624 -1.294288
v 0.000000 5.960624 -1.294288
v -0.805745 5.273240 -2.354356
v 0.000000 5.391088 -2.376694
v -1.458824 4.786823 -2.376694
v -1.861547 5.189546 -1.294288
v -2.424625 4.332311 -1.294288
v -1.945240 4.133743 -2.354356
v -2.063089 3.327998 -2.376694
v -2.632626 3.327998 -1.294288
v -2.424625 2.323686 -1.294289
v -1.945240 2.522254 -2.354357
v -1.458824 1.869174 -2.376695
v -1.861547 1.466451 -1.294289
v -1.004313 0.903373 -1.294289
v -0.805745 1.382758 -2.354357
v 0.000000 1.264910 -2.376695
v 0.000000 0.695373 -1.294289
v 1.004313 0.903373 -1.294289
v 0.805745 1.382758 -2.354357
v 1.458824 1.869174 -2.376695
v 1.861547 1.466451 -1.294289
v 2.424625 2.323685 -1.294289
v 1.945240 2.522254 -2.354357
v 2.063089 3.327998 -2.376694
v 2.632626 3.327998 -1.294288
v 2.424626 4.332311 -1.294288
v 1.945241 4.133743 -2.354356
v 1.458825 4.786823 -2.376694
v 1.861548 5.189545 -1.294288
v 1.004313 5.752624 -1.294288
v 0.805745 5.273240 -2.354356
v -0.554667 4.667083 -2.945984
v 0.000000 4.585854 -3.035336
v 0.000000 3.327998 -3.437421
v -0.889437 4.217436 -3.035336
v -1.339084 3.882665 -2.945984
v -1.257855 3.328000 -3.035336
v -1.339084 2.773333 -2.945985
v -0.889437 2.438561 -3.035336
v -0.554667 1.988915 -2.945985
v 0.000000 2.070144 -3.035337
v 0.554667 1.988915 -2.945985
v 0.889437 2.438561 -3.035336
v 1.339084 2.773333 -2.945985
v 1.257855 3.327998 -3.035336
v 1.339084 3.882665 -2.945984
v 0.889438 4.217436 -3.035336
v 0.554667 4.667082 -2.945984
vn -0.1893 0.5177 0.8344
vn -0.3333 0.3228 0.8858
vn -0.0000 -0.0000 1.0000
vn -0.0074 0.4640 0.8858
vn -0.2964 0.7457 0.5967
vn -0.0116 0.7878 0.6158
vn -0.5653 0.5489 0.6158
vn -0.4999 0.2322 0.8344
vn -0.4640 -0.0074 0.8858
vn -0.7369 0.3178 0.5967
vn -0.7878 -0.0116 0.6158
vn -0.5177 -0.1893 0.8344
vn -0.3228 -0.3333 0.8858
vn -0.7457 -0.2964 0.5967
vn -0.5489 -0.5653 0.6158
vn -0.2322 -0.4999 0.8344
vn 0.0074 -0.4640 0.8858
vn -0.3178 -0.7369 0.5967
vn 0.0116 -0.7878 0.6158
vn 0.1893 -0.5177 0.8344
vn 0.3333 -0.3228 0.8858
vn 0.2964 -0.7457 0.5967
vn 0.5653 -0.5489 0.6158
vn 0.4999 -0.2322 0.8344
vn 0.4640 0.0074 0.8858
vn 0.7369 -0.3178 0.5967
vn 0.7878 0.0116 0.6158
vn 0.5177 0.1893 0.8344
vn 0.3228 0.3333 0.8858
vn 0.7457 0.2964 0.5967
vn 0.5489 0.5653 0.6158
vn 0.2322 0.4999 0.8344
vn 0.3178 0.7369 0.5967
vn -0.3609 0.8804 0.3077
vn -0.0034 0.9498 0.3129
vn -0.3827 0.9239 -0.0000
vn -0.0000 1.0000 -0.0000
vn -0.7071 0.7071 -0.0000
vn -0.6740 0.6692 0.3129
vn -0.8777 0.3673 0.3077
vn -0.9239 0.3827 -0.0000
vn -1.0000 -0.0000 -0.0000
vn -0.9498 -0.0034 0.3129
vn -0.8804 -0.3609 0.3077
vn -0.9239 -0.3827 -0.0000
vn -0.7071 -0.7071 -0.0000
vn -0.6692 -0.6740 0.3129
vn -0.3673 -0.8777 0.3077
vn -0.3827 -0.9239 -0.0000
vn -0.0000 -1.0000 -0.0000
vn 0.0034 -0.9498 0.3129
vn 0.3609 -0.8804 0.3077
vn 0.3827 -0.9239 -0.0000
vn 0.7071 -0.7071 -0.0000
vn 0.6740 -0.6692 0.3130
vn 0.8777 -0.3673 0.3077
vn 0.9239 -0.3827 -0.0000
vn 1.0000 -0.0000 -0.0000
vn 0.9498 0.0034 0.3129
vn 0.8804 0.3609 0.3077
vn 0.9239 0.3827 -0.0000
vn 0.7071 0.7071 -0.0000
vn 0.6692 0.6740 0.3129
vn 0.3673 0.8777 0.3077
vn 0.3827 0.9239 -0.0000
vn -0.3673 0.8777 -0.3077
vn 0.0034 0.9498 -0.3129
vn -0.3178 0.7369 -0.5967
vn 0.0116 0.7878 -0.6158
vn -0.5489 0.5653 -0.6158
vn -0.6692 0.6740 -0.3129
vn -0.8804 0.3609 -0.3077
vn -0.7457 0.2964 -0.5967
vn -0.7878 0.0116 -0.6158
vn -0.9498 0.0033 -0.3129
vn -0.8777 -0.3673 -0.3077
vn -0.7369 -0.3178 -0.5967
vn -0.5653 -0.5489 -0.6158
vn -0.6740 -0.6692 -0.3129
vn -0.3609 -0.8804 -0.3077
vn -0.2964 -0.7457 -0.5967
vn -0.0116 -0.7878 -0.6158
vn -0.0034 -0.9498 -0.3129
vn 0.3673 -0.8777 -0.3077
vn 0.3177 -0.7369 -0.5967
vn 0.5489 -0.5653 -0.6158
vn 0.6692 -0.6740 -0.3129
vn 0.8804 -0.3609 -0.3077
vn 0.7457 -0.2964 -0.5967
vn 0.7878 -0.0116 -0.6158
vn 0.9498 -0.0034 -0.3129
vn 0.8777 0.3673 -0.3077
vn 0.7369 0.3177 -0.5967
vn 0.5653 0.5489 -0.6158
vn 0.6740 0.6692 -0.3129
vn 0.3609 0.8804 -0.3077
vn 0.2964 0.7457 -0.5967
vn -0.2322 0.4999 -0.8344
vn 0.0074 0.4640 -0.8858
vn -0.0000 -0.0000 -1.0000
vn -0.3229 0.3333 -0.8858
vn -0.5177 0.1893 -0.8344
vn -0.4640 0.0074 -0.8858
vn -0.4999 -0.2322 -0.8344
vn -0.3333 -0.3229 -0.8858
vn -0.1893 -0.5177 -0.8344
vn -0.0074 -0.4640 -0.8858
vn 0.2322 -0.4999 -0.8344
vn 0.3229 -0.3333 -0.8858
vn 0.5177 -0.1893 -0.8344
vn 0.4640 -0.0074 -0.8858
vn 0.4999 0.2322 -0.8344
vn 0.3333 0.3228 -0.8858
vn 0.1893 0.5177 -0.8344
vt 0.551018 0.788957
vt 0.576321 0.747494
vt 0.676602 0.790188
vt 0.575503 0.830909
vt 0.488226 0.788342
vt 0.487461 0.866369
vt 0.488991 0.710314
vt 0.588671 0.700517
vt 0.635882 0.689089
vt 0.544706 0.655681
vt 0.600421 0.601048
vt 0.677833 0.664605
vt 0.719297 0.689907
vt 0.678449 0.601813
vt 0.756477 0.602578
vt 0.766274 0.702258
vt 0.777701 0.749468
vt 0.811110 0.658292
vt 0.865743 0.714007
vt 0.802186 0.791420
vt 0.776883 0.832883
vt 0.864978 0.792035
vt 0.864213 0.870063
vt 0.764533 0.879860
vt 0.717322 0.891288
vt 0.808498 0.924696
vt 0.752783 0.979329
vt 0.675371 0.915772
vt 0.633908 0.890470
vt 0.674755 0.978564
vt 0.596727 0.977799
vt 0.586930 0.878119
vt 0.542094 0.922084
vt 0.550475 0.150349
vt 0.550475 0.000116
vt 0.600421 0.000116
vt 0.600421 0.150349
vt 0.550475 0.300582
vt 0.600421 0.300582
vt 0.500529 0.300582
vt 0.500529 0.150349
vt 0.500529 0.000116
vt 0.450583 0.150349
vt 0.450583 0.000116
vt 0.450583 0.300582
vt 0.400637 0.300582
vt 0.400637 0.150349
vt 0.400637 0.000116
vt 0.350690 0.150349
vt 0.350690 0.000116
vt 0.350690 0.300582
vt 0.300744 0.300582
vt 0.300744 0.150349
vt 0.300744 0.000116
vt 0.250798 0.150349
vt 0.250798 0.000116
vt 0.250798 0.300582
vt 0.200852 0.300582
vt 0.200852 0.150349
vt 0.200852 0.000116
vt 0.150906 0.150349
vt 0.150906 0.000116
vt 0.150906 0.300582
vt 0.100960 0.300582
vt 0.100960 0.150349
vt 0.100960 0.000116
vt 0.850152 0.150349
vt 0.850152 0.000116
vt 0.900098 0.000116
vt 0.900098 0.150349
vt 0.850152 0.300582
vt 0.900098 0.300582
vt 0.800206 0.300582
vt 0.800206 0.150349
vt 0.800206 0.000116
vt 0.750260 0.150349
vt 0.750259 0.000116
vt 0.750260 0.300582
vt 0.700313 0.300582
vt 0.700313 0.150349
vt 0.700313 0.000116
vt 0.650367 0.150349
vt 0.650367 0.000116
vt 0.650367 0.300582
vt 0.550475 0.450815
vt 0.600421 0.450815
vt 0.550475 0.601048
vt 0.500529 0.601048
vt 0.500529 0.450815
vt 0.450583 0.450815
vt 0.450583 0.601048
vt 0.400637 0.601048
vt 0.400637 0.450815
vt 0.350690 0.450815
vt 0.350690 0.601048
vt 0.300744 0.601048
vt 0.300744 0.450815
vt 0.250798 0.450815
vt 0.250798 0.601048
vt 0.200852 0.601047
vt 0.200852 0.450815
vt 0.150906 0.450815
vt 0.150906 0.601047
vt 0.100960 0.601047
vt 0.100960 0.450815
vt 0.850152 0.450815
vt 0.900098 0.450815
vt 0.850152 0.601047
vt 0.900098 0.601047
vt 0.800206 0.601047
vt 0.800206 0.450815
vt 0.750260 0.450815
vt 0.750260 0.601047
vt 0.700313 0.601047
vt 0.700313 0.450815
vt 0.650367 0.450815
vt 0.650367 0.601048
vt 0.364964 0.879860
vt 0.317753 0.891287
vt 0.277033 0.790188
vt 0.377315 0.832883
vt 0.408929 0.924696
vt 0.464644 0.870063
vt 0.353214 0.979329
vt 0.402617 0.791419
vt 0.378132 0.749468
vt 0.465409 0.792035
vt 0.466174 0.714007
vt 0.366705 0.702258
vt 0.319728 0.689907
vt 0.411541 0.658292
vt 0.356908 0.602577
vt 0.278264 0.664604
vt 0.236313 0.689089
vt 0.278880 0.601812
vt 0.189103 0.700516
vt 0.176752 0.747494
vt 0.145137 0.655681
vt 0.089422 0.710314
vt 0.151449 0.788957
vt 0.175934 0.830908
vt 0.088657 0.788341
vt 0.087892 0.866369
vt 0.187361 0.878119
vt 0.234339 0.890470
vt 0.142525 0.922084
vt 0.197158 0.977799
vt 0.275802 0.915772
vt 0.275186 0.978564
s 1
usemtl Material__Coco
f 1/1/1 2/2/2 3/3/3 4/4/4
f 5/5/5 1/1/1 4/4/4 6/6/6
f 1/1/1 5/5/5 7/7/7 2/2/2
f 8/8/8 9/9/9 3/3/3 2/2/2
f 10/10/10 8/8/8 2/2/2 7/7/7
f 8/8/8 10/10/10 11/11/11 9/9/9
f 12/12/12 13/13/13 3/3/3 9/9/9
f 14/14/14 12/12/12 9/9/9 11/11/11
f 12/12/12 14/14/14 15/15/15 13/13/13
f 16/16/16 17/17/17 3/3/3 13/13/13
f 18/18/18 16/16/16 13/13/13 15/15/15
f 16/16/16 18/18/18 19/19/19 17/17/17
f 20/20/20 21/21/21 3/3/3 17/17/17
f 22/22/22 20/20/20 17/17/17 19/19/19
f 20/20/20 22/22/22 23/23/23 21/21/21
f 24/24/24 25/25/25 3/3/3 21/21/21
f 26/26/26 24/24/24 21/21/21 23/23/23
f 24/24/24 26/26/26 27/27/27 25/25/25
f 28/28/28 29/29/29 3/3/3 25/25/25
f 30/30/30 28/28/28 25/25/25 27/27/27
f 28/28/28 30/30/30 31/31/31 29/29/29
f 32/32/32 4/4/4 3/3/3 29/29/29
f 33/33/33 32/32/32 29/29/29 31/31/31
f 32/32/32 33/33/33 6/6/6 4/4/4
f 34/34/34 5/35/5 6/36/6 35/37/35
f 36/38/36 34/34/34 35/37/35 37/39/37
f 34/34/34 36/38/36 38/40/38 39/41/39
f 5/35/5 34/34/34 39/41/39 7/42/7
f 40/43/40 10/44/10 7/42/7 39/41/39
f 41/45/41 40/43/40 39/41/39 38/40/38
f 40/43/40 41/45/41 42/46/42 43/47/43
f 10/44/10 40/43/40 43/47/43 11/48/11
f 44/49/44 14/50/14 11/48/11 43/47/43
f 45/51/45 44/49/44 43/47/43 42/46/42
f 44/49/44 45/51/45 46/52/46 47/53/47
f 14/50/14 44/49/44 47/53/47 15/54/15
f 48/55/48 18/56/18 15/54/15 47/53/47
f 49/57/49 48/55/48 47/53/47 46/52/46
f 48/55/48 49/57/49 50/58/50 51/59/51
f 18/56/18 48/55/48 51/59/51 19/60/19
f 52/61/52 22/62/22 19/60/19 51/59/51
f 53/63/53 52/61/52 51/59/51 50/58/50
f 52/61/52 53/63/53 54/64/54 55/65/55
f 22/62/22 52/61/52 55/65/55 23/66/23
f 56/67/56 26/68/26 23/69/23 55/70/55
f 57/71/57 56/67/56 55/70/55 54/72/54
f 56/67/56 57/71/57 58/73/58 59/74/59
f 26/68/26 56/67/56 59/74/59 27/75/27
f 60/76/60 30/77/30 27/75/27 59/74/59
f 61/78/61 60/76/60 59/74/59 58/73/58
f 60/76/60 61/78/61 62/79/62 63/80/63
f 30/77/30 60/76/60 63/80/63 31/81/31
f 64/82/64 33/83/33 31/81/31 63/80/63
f 65/84/65 64/82/64 63/80/63 62/79/62
f 64/82/64 65/84/65 37/39/37 35/37/35
f 33/83/33 64/82/64 35/37/35 6/36/6
f 66/85/66 36/38/36 37/39/37 67/86/67
f 68/87/68 66/85/66 67/86/67 69/11/69
f 66/85/66 68/87/68 70/88/70 71/89/71
f 36/38/36 66/85/66 71/89/71 38/40/38
f 72/90/72 41/45/41 38/40/38 71/89/71
f 73/91/73 72/90/72 71/89/71 70/88/70
f 72/90/72 73/91/73 74/92/74 75/93/75
f 41/45/41 72/90/72 75/93/75 42/46/42
f 76/94/76 45/51/45 42/46/42 75/93/75
f 77/95/77 76/94/76 75/93/75 74/92/74
f 76/94/76 77/95/77 78/96/78 79/97/79
f 45/51/45 76/94/76 79/97/79 46/52/46
f 80/98/80 49/57/49 46/52/46 79/97/79
f 81/99/81 80/98/80 79/97/79 78/96/78
f 80/98/80 81/99/81 82/100/82 83/101/83
f 49/57/49 80/98/80 83/101/83 50/58/50
f 84/102/84 53/63/53 50/58/50 83/101/83
f 85/103/85 84/102/84 83/101/83 82/100/82
f 84/102/84 85/103/85 86/104/86 87/105/87
f 53/63/53 84/102/84 87/105/87 54/64/54
f 88/106/88 57/71/57 54/72/54 87/107/87
f 89/108/89 88/106/88 87/107/87 86/109/86
f 88/106/88 89/108/89 90/110/90 91/111/91
f 57/71/57 88/106/88 91/111/91 58/73/58
f 92/112/92 61/78/61 58/73/58 91/111/91
f 93/113/93 92/112/92 91/111/91 90/110/90
f 92/112/92 93/113/93 94/114/94 95/115/95
f 61/78/61 92/112/92 95/115/95 62/79/62
f 96/116/96 65/84/65 62/79/62 95/115/95
f 97/117/97 96/116/96 95/115/95 94/114/94
f 96/116/96 97/117/97 69/11/69 67/86/67
f 65/84/65 96/116/96 67/86/67 37/39/37
f 98/118/98 99/119/99 100/120/100 101/121/101
f 68/122/68 98/118/98 101/121/101 70/123/70
f 98/118/98 68/122/68 69/124/69 99/119/99
f 102/125/102 101/121/101 100/120/100 103/126/103
f 73/127/73 102/125/102 103/126/103 74/128/74
f 102/125/102 73/127/73 70/123/70 101/121/101
f 104/129/104 103/126/103 100/120/100 105/130/105
f 77/131/77 104/129/104 105/130/105 78/132/78
f 104/129/104 77/131/77 74/128/74 103/126/103
f 106/133/106 105/130/105 100/120/100 107/134/107
f 81/135/81 106/133/106 107/134/107 82/100/82
f 106/133/106 81/135/81 78/132/78 105/130/105
f 108/136/108 107/134/107 100/120/100 109/137/109
f 85/138/85 108/136/108 109/137/109 86/139/86
f 108/136/108 85/138/85 82/100/82 107/134/107
f 110/140/110 109/137/109 100/120/100 111/141/111
f 89/142/89 110/140/110 111/141/111 90/143/90
f 110/140/110 89/142/89 86/139/86 109/137/109
f 112/144/112 111/141/111 100/120/100 113/145/113
f 93/146/93 112/144/112 113/145/113 94/147/94
f 112/144/112 93/146/93 90/143/90 111/141/111
f 114/148/114 113/145/113 100/120/100 99/119/99
f 97/149/97 114/148/114 99/119/99 69/124/69
f 114/148/114 97/149/97 94/147/94 113/145/113
