# Blender 4.2.0
# www.blender.org
mtllib untitled.mtl
o Hammer
v 0.023571 -0.149996 -0.146052
v 0.023571 -0.149996 -0.044406
v -0.019906 -1.570067 -0.138150
v -0.019906 -1.570067 -0.052309
v 0.019906 -1.570067 -0.138150
v 0.019906 -1.570067 -0.052309
v 0.023571 -0.149996 -0.095229
v 0.000000 -0.149996 -0.044406
v -0.019906 -1.570067 -0.095229
v 0.000000 -1.570067 -0.138150
v 0.019906 -1.570067 -0.095229
v 0.000000 -1.570067 -0.052309
v -0.025208 -0.342090 -0.047000
v 0.021669 -0.346340 -0.044366
v 0.025208 -0.368705 -0.143458
v -0.021669 -0.364455 -0.146092
v -0.023438 -0.353272 -0.096546
v 0.023438 -0.357523 -0.093912
v 0.001770 -0.366580 -0.144775
v 0.000000 -1.570067 -0.095229
v -0.001770 -0.344215 -0.045683
v -0.023571 -0.149996 -0.069817
v -0.011786 -0.149996 -0.146052
v -0.019906 -1.570067 -0.073769
v -0.009953 -1.570067 -0.138150
v 0.019906 -1.570067 -0.116689
v 0.009953 -1.570067 -0.052309
v -0.024390 -0.432870 -0.045703
v 0.025312 -0.242466 -0.043844
v 0.024390 -0.446177 -0.144755
v -0.025312 -0.238400 -0.140125
v -0.023571 -0.149996 -0.120641
v -0.011786 -0.149996 -0.044406
v -0.019906 -1.570067 -0.116689
v 0.009953 -1.570067 -0.138150
v 0.019906 -1.570067 -0.073769
v -0.009953 -1.570067 -0.052309
v -0.024151 -0.247077 -0.047516
v 0.022620 -0.434995 -0.044386
v 0.024652 -0.233790 -0.142942
v -0.022620 -0.444052 -0.146072
v -0.023505 -0.438461 -0.095888
v -0.021577 -0.242739 -0.093821
v -0.024323 -0.347681 -0.071773
v -0.022553 -0.358864 -0.121319
v 0.023505 -0.440586 -0.094571
v 0.021577 -0.238128 -0.096637
v 0.024323 -0.363114 -0.118685
v 0.022553 -0.351931 -0.069139
v 0.000885 -0.445115 -0.145414
v -0.003735 -0.236095 -0.141533
v -0.009949 -0.365517 -0.145434
v 0.013489 -0.367642 -0.144117
v 0.000000 -1.570067 -0.073769
v 0.000000 -1.570067 -0.116689
v -0.009953 -1.570067 -0.095229
v 0.009953 -1.570067 -0.095229
v -0.000885 -0.433933 -0.045044
v 0.003735 -0.244772 -0.048925
v 0.009949 -0.345278 -0.045024
v -0.013489 -0.343153 -0.046341
v -0.007054 -0.245924 -0.048221
v 0.014523 -0.243619 -0.049629
v 0.010868 -0.434464 -0.044715
v 0.009953 -1.570067 -0.116689
v -0.009953 -1.570067 -0.116689
v -0.009953 -1.570067 -0.073769
v 0.007054 -0.234942 -0.142238
v -0.014523 -0.237248 -0.140829
v -0.010868 -0.444584 -0.145743
v 0.023445 -0.240297 -0.073485
v 0.019710 -0.235959 -0.119789
v 0.023947 -0.443382 -0.119663
v -0.023445 -0.240570 -0.116973
v -0.019710 -0.244908 -0.070669
v -0.023947 -0.435666 -0.070795
v -0.023062 -0.441257 -0.120980
v 0.023062 -0.437791 -0.069478
v 0.012637 -0.445646 -0.145085
v 0.009953 -1.570067 -0.073769
v -0.012637 -0.433401 -0.045374
v -0.023571 -0.149996 -0.146052
v -0.023571 -0.149996 -0.044406
v -0.023571 -0.149996 -0.095229
v 0.000000 -0.149996 -0.146052
v 0.023571 -0.149996 -0.120641
v 0.011786 -0.149996 -0.044406
v 0.011786 -0.149996 -0.146052
v 0.023571 -0.149996 -0.069817
v -0.082368 -0.149511 0.082368
v -0.085017 -0.072129 0.175693
v -0.124984 -0.082368 0.082368
v -0.082368 0.082368 0.178342
v -0.082368 0.156241 0.082368
v -0.122335 0.072129 0.085017
v -0.082368 -0.149511 -0.272826
v -0.124984 -0.082368 -0.272826
v -0.082368 -0.082368 -0.357968
v -0.082368 0.156960 -0.272826
v -0.082368 0.082368 -0.357968
v -0.124984 0.082368 -0.272826
v 0.082368 -0.149511 0.082368
v 0.124984 -0.082368 0.082368
v 0.082368 -0.082368 0.178342
v 0.082368 0.152999 0.082368
v 0.085173 0.079936 0.170642
v 0.124984 0.082368 0.082368
v 0.082368 -0.149511 -0.272826
v 0.082368 -0.082368 -0.357968
v 0.124984 -0.082368 -0.272826
v 0.082368 0.152999 -0.272826
v 0.119289 0.073412 -0.272826
v 0.082368 0.082368 -0.357968
vn -0.0153 -0.0061 0.9999
vn -0.0153 -0.0060 0.9999
vn -0.0000 -1.0000 -0.0000
vn 0.0150 -0.0062 -0.9999
vn 0.0150 -0.0061 -0.9999
vn 0.9999 -0.0058 0.0099
vn 0.9999 -0.0026 0.0097
vn 0.9999 -0.0028 0.0097
vn -1.0000 -0.0028 -0.0093
vn -1.0000 -0.0027 -0.0093
vn -1.0000 -0.0020 -0.0094
vn -1.0000 -0.0015 -0.0094
vn -1.0000 -0.0032 -0.0093
vn -1.0000 -0.0035 -0.0093
vn -0.9994 0.0300 0.0183
vn -0.9996 -0.0195 0.0219
vn 0.9999 -0.0069 0.0099
vn 0.9999 -0.0063 0.0099
vn 0.9999 -0.0032 0.0097
vn 0.9999 -0.0036 0.0097
vn 0.9994 0.0259 -0.0223
vn 0.9996 -0.0213 -0.0167
vn 0.0150 -0.0067 -0.9999
vn 0.0150 -0.0065 -0.9999
vn -0.0022 0.0412 -0.9991
vn -0.0022 0.0300 -0.9995
vn -0.0022 0.0298 -0.9996
vn -0.0022 0.0410 -0.9992
vn -0.0017 0.0193 -0.9998
vn -0.0016 0.0089 -1.0000
vn -0.0018 0.0190 -0.9998
vn -0.0153 -0.0067 0.9999
vn -0.0153 -0.0064 0.9999
vn -0.1500 0.0290 0.9883
vn 0.0019 0.0266 0.9996
vn 0.0019 0.0260 0.9997
vn -0.1423 0.0285 0.9894
vn 0.0016 0.0129 0.9999
vn 0.0015 0.0124 0.9999
vn 0.0018 0.0125 0.9999
vn 0.0335 -0.0462 0.9984
vn 0.0294 -0.0386 0.9988
vn 0.0295 -0.0419 0.9987
vn 0.0337 -0.0494 0.9982
vn 0.0258 -0.0353 0.9990
vn -0.2752 0.0301 0.9609
vn -0.2467 -0.0302 0.9686
vn -0.1049 -0.0409 0.9936
vn -0.0998 -0.0442 0.9940
vn -0.0153 -0.0068 0.9999
vn -0.0420 0.0012 0.9991
vn -0.0419 0.0014 0.9991
vn -0.0418 0.0030 0.9991
vn -0.0417 0.0050 0.9991
vn -0.0416 0.0066 0.9991
vn -0.0285 -0.0510 -0.9983
vn -0.0254 -0.0438 -0.9987
vn -0.0259 -0.0410 -0.9988
vn -0.0287 -0.0484 -0.9984
vn -0.0223 -0.0405 -0.9989
vn -0.0022 0.0415 -0.9991
vn -0.0279 -0.0626 -0.9976
vn -0.0281 -0.0587 -0.9979
vn -0.0283 -0.0562 -0.9980
vn 0.0150 -0.0069 -0.9999
vn 0.0421 0.0013 -0.9991
vn 0.0424 0.0054 -0.9991
vn 0.0423 0.0035 -0.9991
vn 0.0427 0.0097 -0.9990
vn 0.0426 0.0077 -0.9991
vn 0.9998 0.0036 -0.0208
vn 0.9992 -0.0108 -0.0389
vn 0.9994 0.0094 -0.0335
vn 0.9927 0.0199 0.1193
vn 0.9948 -0.0140 0.1006
vn 0.9986 -0.0335 -0.0399
vn 0.9999 -0.0037 0.0097
vn 0.9996 -0.0080 0.0279
vn 0.9996 -0.0075 0.0279
vn 0.9996 -0.0024 0.0270
vn 0.9996 -0.0018 0.0269
vn 0.9997 0.0031 0.0261
vn -0.9998 0.0036 0.0202
vn -0.9992 -0.0105 0.0380
vn -0.9992 0.0111 0.0389
vn -0.9932 0.0288 -0.1124
vn -0.9957 -0.0151 -0.0917
vn -0.9988 -0.0311 0.0370
vn -1.0000 -0.0037 -0.0093
vn -0.9997 -0.0070 -0.0254
vn -0.9997 -0.0023 -0.0262
vn -0.9997 -0.0068 -0.0255
vn -0.9996 0.0029 -0.0271
vn -0.9997 -0.0018 -0.0263
vn -0.9996 0.0086 -0.0280
vn -0.9996 0.0035 -0.0272
vn -0.9996 0.0089 -0.0281
vn 0.9997 0.0036 0.0260
vn 0.9996 0.0081 0.0253
vn 0.9996 0.0083 0.0252
vn 0.0430 0.0139 -0.9990
vn 0.0429 0.0120 -0.9990
vn 0.0430 0.0141 -0.9990
vn -0.0415 0.0087 0.9991
vn -0.0413 0.0103 0.9991
vn -0.0412 0.0121 0.9991
vn -0.0068 -1.0000 0.0007
vn -0.0068 -1.0000 -0.0007
vn -0.0006 -1.0000 -0.0036
vn -0.0083 -1.0000 -0.0000
vn -0.0006 -1.0000 0.0036
vn 0.0068 -1.0000 0.0007
vn -0.0000 -1.0000 0.0038
vn 0.0006 -1.0000 0.0036
vn 0.0068 -1.0000 -0.0007
vn 0.0083 -1.0000 -0.0000
vn 0.0006 -1.0000 -0.0036
vn -0.0000 -1.0000 -0.0038
vn 0.0157 0.0157 0.9998
vn 0.9998 0.0178 -0.0082
vn 0.0219 0.9998 0.0010
vn -1.0000 0.0083 0.0038
vn -0.0000 -0.0000 -1.0000
vn -0.7783 -0.4940 0.3875
vn -0.8520 0.4149 0.3194
vn -0.7777 -0.4936 -0.3893
vn -0.7963 0.4550 -0.3986
vn 0.7906 -0.5018 0.3510
vn 0.7949 0.4796 0.3717
vn 0.7777 -0.4936 -0.3893
vn 0.8564 0.3973 -0.3296
vn -0.8443 -0.5359 -0.0000
vn -0.9196 0.0090 0.3928
vn -0.8870 0.4617 0.0104
vn -0.8942 -0.0000 -0.4476
vn -0.0000 -0.7852 -0.6192
vn 0.0091 0.7608 -0.6489
vn 0.9062 0.0161 -0.4224
vn 0.8443 -0.5359 -0.0000
vn 0.8837 0.4679 -0.0130
vn 0.9128 0.0018 0.4084
vn -0.0293 -0.7947 0.6063
vn 0.0278 0.7817 0.6230
vt 0.208811 0.707378
vt 0.167622 0.707378
vt 0.291189 0.666189
vt 0.332378 0.666189
vt 0.332378 0.707378
vt 0.291189 0.707378
vt 0.291189 0.542622
vt 0.332378 0.542622
vt 0.167622 0.583811
vt 0.167622 0.542622
vt 0.167622 0.666189
vt 0.167622 0.625000
vt 0.332378 0.583811
vt 0.332378 0.625000
vt 0.208811 0.542622
vt 0.250000 0.542622
vt 0.208811 0.666189
vt 0.250000 0.666189
vt 0.250000 0.707378
vt 0.208811 0.583811
vt 0.250000 0.583811
vt 0.250000 0.625000
vt 0.208811 0.625000
vt 0.291189 0.583811
vt 0.291189 0.625000
vt 0.417622 0.792621
vt 0.582378 0.792621
vt 0.582378 0.957378
vt 0.417622 0.957378
vt 0.417622 0.542622
vt 0.582378 0.542622
vt 0.582378 0.707378
vt 0.417622 0.707378
vt 0.667621 0.542622
vt 0.832378 0.542622
vt 0.832378 0.707378
vt 0.667622 0.707378
vt 0.417622 0.042622
vt 0.582378 0.042622
vt 0.582378 0.207378
vt 0.417622 0.207378
vt 0.417622 0.292622
vt 0.582378 0.292622
vt 0.582378 0.457378
vt 0.417622 0.457378
vt 0.167622 0.750000
vt 0.125000 0.707378
vt 0.625000 0.957378
vt 0.582378 1.000000
vt 0.125000 0.542622
vt 0.167622 0.500000
vt 0.832378 0.500000
vt 0.875000 0.542622
vt 0.375000 0.707378
vt 0.332378 0.750000
vt 0.667622 0.750000
vt 0.625000 0.707378
vt 0.332378 0.500000
vt 0.375000 0.542622
vt 0.625000 0.542622
vt 0.667622 0.500000
vt 0.417622 1.000000
vt 0.875000 0.707378
vt 0.832378 0.750000
s 1
usemtl Material.001
f 81/1/1 28/2/2 4/2/2 37/1/1
f 80/3/3 36/4/3 6/5/3 27/6/3
f 79/7/4 30/8/5 5/8/5 35/7/4
f 78/4/6 39/5/7 6/5/7 36/4/8
f 77/9/9 41/10/10 3/10/10 34/9/9
f 76/11/11 42/12/12 9/12/13 24/11/14
f 75/11/15 43/12/15 17/12/15 44/11/15
f 74/9/16 31/10/16 16/10/16 45/9/16
f 73/13/17 46/14/18 11/14/19 26/13/20
f 72/13/21 47/14/21 18/14/21 48/13/21
f 71/4/22 29/5/22 14/5/22 49/4/22
f 70/15/23 50/16/24 10/16/24 25/15/23
f 69/15/25 51/16/26 19/16/27 52/15/28
f 68/7/29 40/8/30 15/8/30 53/7/31
f 67/17/3 54/18/3 12/19/3 37/1/3
f 66/20/3 55/21/3 20/22/3 56/23/3
f 65/24/3 26/13/3 11/14/3 57/25/3
f 64/6/32 58/19/33 12/19/33 27/6/32
f 63/6/34 59/19/35 21/19/36 60/6/37
f 62/1/38 38/2/39 13/2/39 61/1/40
f 59/19/35 62/1/38 61/1/40 21/19/36
f 8/19/41 33/1/42 62/1/43 59/19/44
f 33/1/42 83/2/45 38/2/45 62/1/43
f 29/5/46 63/6/34 60/6/37 14/5/46
f 2/5/47 87/6/48 63/6/49 29/5/47
f 87/6/48 8/19/41 59/19/44 63/6/49
f 39/5/50 64/6/32 27/6/32 6/5/50
f 14/5/51 60/6/52 64/6/53 39/5/51
f 60/6/52 21/19/54 58/19/55 64/6/53
f 55/21/3 65/24/3 57/25/3 20/22/3
f 10/16/3 35/7/3 65/24/3 55/21/3
f 35/7/3 5/8/3 26/13/3 65/24/3
f 34/9/3 66/20/3 56/23/3 9/12/3
f 3/10/3 25/15/3 66/20/3 34/9/3
f 25/15/3 10/16/3 55/21/3 66/20/3
f 24/11/3 67/17/3 37/1/3 4/2/3
f 9/12/3 56/23/3 67/17/3 24/11/3
f 56/23/3 20/22/3 54/18/3 67/17/3
f 51/16/26 68/7/29 53/7/31 19/16/27
f 85/16/56 88/7/57 68/7/58 51/16/59
f 88/7/57 1/8/60 40/8/60 68/7/58
f 31/10/61 69/15/25 52/15/28 16/10/61
f 82/10/62 23/15/63 69/15/64 31/10/62
f 23/15/63 85/16/56 51/16/59 69/15/64
f 41/10/65 70/15/23 25/15/23 3/10/65
f 16/10/66 52/15/67 70/15/68 41/10/66
f 52/15/67 19/16/69 50/16/70 70/15/68
f 47/14/71 71/4/71 49/4/71 18/14/71
f 7/14/72 89/4/72 71/4/72 47/14/72
f 89/4/73 2/5/73 29/5/73 71/4/73
f 40/8/74 72/13/74 48/13/74 15/8/74
f 1/8/75 86/13/75 72/13/75 40/8/75
f 86/13/76 7/14/76 47/14/76 72/13/76
f 30/8/77 73/13/17 26/13/20 5/8/77
f 15/8/78 48/13/79 73/13/80 30/8/78
f 48/13/79 18/14/81 46/14/82 73/13/80
f 43/12/83 74/9/83 45/9/83 17/12/83
f 84/12/84 32/9/84 74/9/84 43/12/84
f 32/9/85 82/10/85 31/10/85 74/9/85
f 38/2/86 75/11/86 44/11/86 13/2/86
f 83/2/87 22/11/87 75/11/87 38/2/87
f 22/11/88 84/12/88 43/12/88 75/11/88
f 28/2/89 76/11/11 24/11/14 4/2/89
f 13/2/90 44/11/91 76/11/92 28/2/90
f 44/11/91 17/12/93 42/12/94 76/11/92
f 42/12/12 77/9/9 34/9/9 9/12/13
f 17/12/93 45/9/95 77/9/96 42/12/94
f 45/9/95 16/10/97 41/10/97 77/9/96
f 46/14/18 78/4/6 36/4/8 11/14/19
f 18/14/81 49/4/98 78/4/99 46/14/82
f 49/4/98 14/5/100 39/5/100 78/4/99
f 50/16/24 79/7/4 35/7/4 10/16/24
f 19/16/69 53/7/101 79/7/102 50/16/70
f 53/7/101 15/8/103 30/8/103 79/7/102
f 54/18/3 80/3/3 27/6/3 12/19/3
f 20/22/3 57/25/3 80/3/3 54/18/3
f 57/25/3 11/14/3 36/4/3 80/3/3
f 58/19/33 81/1/1 37/1/1 12/19/33
f 21/19/54 61/1/104 81/1/105 58/19/55
f 61/1/104 13/2/106 28/2/106 81/1/105
usemtl Material.002
f 90/2/107 96/10/108 82/10/109 32/9/110 84/12/110 22/11/110 83/2/111
f 102/5/112 90/2/107 83/2/111 33/1/113 8/19/113 87/6/113 2/5/114
f 108/8/115 102/5/112 2/5/114 89/4/116 7/14/116 86/13/116 1/8/117
f 96/10/108 108/8/115 1/8/117 88/7/118 85/16/118 23/15/118 82/10/109
f 104/26/119 106/27/119 93/28/119 91/29/119
f 110/30/120 112/31/120 107/32/120 103/33/120
f 111/34/121 99/35/121 94/36/121 105/37/121
f 92/38/122 95/39/122 101/40/122 97/41/122
f 98/42/123 100/43/123 113/44/123 109/45/123
f 90/2/124 91/46/124 92/47/124
f 93/28/125 94/48/125 95/49/125
f 96/10/126 97/50/126 98/51/126
f 99/35/127 100/52/127 101/53/127
f 102/5/128 103/54/128 104/55/128
f 105/37/129 106/56/129 107/57/129
f 108/8/130 109/58/130 110/59/130
f 111/34/131 112/60/131 113/61/131
f 96/10/132 90/2/132 92/47/132 97/50/132
f 91/29/133 93/28/133 95/49/133 92/62/133
f 94/36/134 99/35/134 101/53/134 95/63/134
f 100/43/135 98/42/135 97/41/135 101/40/135
f 108/8/136 96/10/136 98/51/136 109/58/136
f 99/35/137 111/34/137 113/61/137 100/52/137
f 112/31/138 110/30/138 109/45/138 113/44/138
f 102/5/139 108/8/139 110/30/139 103/33/139
f 111/34/140 105/37/140 107/32/140 112/31/140
f 106/27/141 104/26/141 103/33/141 107/32/141
f 90/2/142 102/5/142 104/55/142 91/46/142
f 105/37/143 94/36/143 93/64/143 106/56/143
