# Blender 4.2.0
# www.blender.org
mtllib orange.mtl
o Mandarin
v 0.370100 19.323099 -6.821501
v -4.105500 20.483997 -21.122202
v -10.657600 20.570997 -16.956701
v -14.249900 20.576200 -10.073102
v -13.920000 20.498199 -2.315902
v -9.756200 20.358000 4.236299
v -2.874200 20.193001 7.827899
v 4.881900 20.047501 7.496599
v 11.433900 19.960400 3.331099
v 15.026300 19.955200 -3.552501
v 14.696400 20.033199 -11.309702
v 10.532600 20.173399 -17.861902
v 3.650600 20.338398 -21.453602
v -18.907700 12.229198 -24.461599
v -7.559200 12.078397 -31.676500
v -25.129801 12.238199 -12.538901
v -24.558399 12.103200 0.896899
v -17.346500 11.860201 12.245699
v -5.426600 11.574401 18.466600
v 8.007400 11.322401 17.892700
v 19.355900 11.171700 10.677799
v 25.578100 11.162600 -1.244901
v 25.006599 11.297599 -14.680701
v 17.794701 11.540598 -26.029499
v 5.874800 11.826397 -32.250401
v -22.091499 0.610498 -27.287701
v -8.987400 0.436497 -35.618801
v -29.276199 0.620999 -13.520600
v -28.616400 0.465100 1.993700
v -20.288799 0.184501 15.098200
v -6.524900 -0.145498 22.281500
v 8.987400 -0.436498 21.618799
v 22.091499 -0.610499 13.287700
v 29.276199 -0.621000 -0.479400
v 28.616400 -0.465101 -15.993700
v 20.288799 -0.184502 -29.098200
v 6.524900 0.145497 -36.281502
v -19.355900 -11.171701 -24.677799
v -8.007500 -11.322403 -31.892700
v -25.578100 -11.162601 -12.755099
v -25.006599 -11.297700 0.680701
v -17.794701 -11.540599 12.029501
v -5.874800 -11.826399 18.250401
v 7.559200 -12.078399 17.676500
v 18.907700 -12.229199 10.461601
v 25.129801 -12.238200 -1.461099
v 24.558399 -12.103201 -14.896899
v 17.346500 -11.860202 -26.245701
v 5.426600 -11.574403 -32.466599
v -11.433900 -19.960402 -17.331099
v -4.881900 -20.047503 -21.496597
v -15.026300 -19.955200 -10.447498
v -14.696400 -20.033199 -2.690299
v -10.532600 -20.173401 3.861902
v -3.650600 -20.338400 7.453601
v 4.105500 -20.483999 7.122201
v 10.657600 -20.570999 2.956702
v 14.249900 -20.576200 -3.926898
v 13.920000 -20.498199 -11.684098
v 9.756200 -20.358002 -18.236298
v 2.874200 -20.193003 -21.827898
vn 0.0192 0.9998 0.0092
vn -0.0861 0.9426 -0.3227
vn -0.2378 0.9446 -0.2263
vn -0.3210 0.9447 -0.0668
vn -0.3134 0.9429 0.1128
vn -0.2170 0.9397 0.2645
vn -0.0576 0.9358 0.3477
vn 0.1220 0.9325 0.3400
vn 0.2738 0.9304 0.2436
vn 0.3570 0.9303 0.0842
vn 0.3493 0.9321 -0.0955
vn 0.2529 0.9354 -0.2472
vn 0.0935 0.9392 -0.3304
vn -0.5997 0.5761 -0.5554
vn -0.2376 0.5713 -0.7856
vn -0.7982 0.5764 -0.1750
vn -0.7800 0.5721 0.2537
vn -0.5499 0.5644 0.6157
vn -0.1696 0.5553 0.8142
vn 0.2590 0.5472 0.7959
vn 0.6211 0.5424 0.5657
vn 0.8196 0.5421 0.1853
vn 0.8014 0.5464 -0.2433
vn 0.5713 0.5542 -0.6054
vn 0.1910 0.5633 -0.8039
vn -0.7364 0.0204 -0.6763
vn -0.2996 0.0146 -0.9540
vn -0.9759 0.0207 -0.2174
vn -0.9539 0.0155 0.2998
vn -0.6763 0.0061 0.7366
vn -0.2175 -0.0049 0.9760
vn 0.2996 -0.0146 0.9540
vn 0.7364 -0.0204 0.6763
vn 0.9759 -0.0207 0.2174
vn 0.9539 -0.0155 -0.2998
vn 0.6763 -0.0061 -0.7366
vn 0.2175 0.0049 -0.9760
vn -0.6211 -0.5424 -0.5657
vn -0.2590 -0.5472 -0.7959
vn -0.8196 -0.5421 -0.1853
vn -0.8014 -0.5464 0.2433
vn -0.5713 -0.5542 0.6054
vn -0.1910 -0.5633 0.8039
vn 0.2376 -0.5713 0.7856
vn 0.5997 -0.5761 0.5554
vn 0.7982 -0.5764 0.1750
vn 0.7800 -0.5721 -0.2537
vn 0.5499 -0.5644 -0.6157
vn 0.1696 -0.5553 -0.8142
vn -0.2917 -0.9205 -0.2601
vn -0.1292 -0.9226 -0.3634
vn -0.3807 -0.9204 -0.0894
vn -0.3725 -0.9223 0.1029
vn -0.2693 -0.9258 0.2654
vn -0.0987 -0.9299 0.3544
vn 0.0936 -0.9335 0.3462
vn 0.2561 -0.9356 0.2429
vn 0.3452 -0.9358 0.0723
vn 0.3370 -0.9338 -0.1201
vn 0.2337 -0.9303 -0.2825
vn 0.0631 -0.9263 -0.3716
vt 0.510000 0.498200
vt 0.537900 0.397000
vt 0.585900 0.424100
vt 0.612500 0.471000
vt 0.611200 0.526100
vt 0.584100 0.574100
vt 0.537200 0.600800
vt 0.482100 0.599500
vt 0.434100 0.572400
vt 0.407400 0.525400
vt 0.408700 0.470300
vt 0.435800 0.422300
vt 0.482800 0.395700
vt 0.657900 0.354000
vt 0.563500 0.304000
vt 0.709600 0.445000
vt 0.704200 0.551700
vt 0.654200 0.646100
vt 0.563200 0.697800
vt 0.456500 0.692400
vt 0.362100 0.642400
vt 0.310400 0.551500
vt 0.315800 0.444700
vt 0.365800 0.350300
vt 0.456700 0.298600
vt 0.719200 0.287700
vt 0.584300 0.228200
vt 0.797900 0.426300
vt 0.780000 0.572600
vt 0.720500 0.707500
vt 0.581900 0.786200
vt 0.435600 0.768300
vt 0.300700 0.708700
vt 0.222000 0.570200
vt 0.240000 0.423900
vt 0.299500 0.289000
vt 0.438000 0.210300
vt 0.720200 0.172700
vt 0.608000 0.142400
vt 0.872500 0.355000
vt 0.818600 0.260100
vt 0.865800 0.596200
vt 0.897200 0.484300
vt 0.835500 0.708400
vt 0.653200 0.860800
vt 0.748100 0.806900
vt 0.412000 0.854000
vt 0.523900 0.885500
vt 0.299800 0.823800
vt 0.147400 0.641400
vt 0.201300 0.736300
vt 0.154200 0.400200
vt 0.122700 0.512100
vt 0.184400 0.288000
vt 0.366800 0.135700
vt 0.271900 0.189600
vt 0.496100 0.111000
vt 0.723300 0.058900
vt 0.662500 0.042500
vt 0.957300 0.280300
vt 0.926200 0.225500
vt 0.979500 0.600500
vt 0.996600 0.539900
vt 0.949300 0.711500
vt 0.965700 0.650700
vt 0.727900 0.945600
vt 0.782700 0.914500
vt 0.407600 0.967700
vt 0.468300 0.984800
vt 0.296600 0.937500
vt 0.357500 0.953900
vt 0.062600 0.716100
vt 0.093700 0.770900
vt 0.040500 0.395900
vt 0.023400 0.456600
vt 0.070700 0.284900
vt 0.054300 0.345700
vt 0.292100 0.050900
vt 0.237300 0.082000
vt 0.612300 0.028700
vt 0.551600 0.011600
vt 0.254400 0.912400
vt 0.227400 0.958400
vt 0.181100 0.984700
vt 0.127700 0.984400
vt 0.254800 0.859100
vt 0.055400 0.911000
vt 0.182500 0.785700
vt 0.228500 0.812700
vt 0.081800 0.957400
vt 0.082800 0.811700
vt 0.129200 0.785400
vt 0.055800 0.857700
s 1
usemtl Material.001
f 1/1/1 2/2/2 3/3/3
f 1/1/1 3/3/3 4/4/4
f 1/1/1 4/4/4 5/5/5
f 1/1/1 5/5/5 6/6/6
f 1/1/1 6/6/6 7/7/7
f 1/1/1 7/7/7 8/8/8
f 1/1/1 8/8/8 9/9/9
f 1/1/1 9/9/9 10/10/10
f 1/1/1 10/10/10 11/11/11
f 1/1/1 11/11/11 12/12/12
f 1/1/1 12/12/12 13/13/13
f 1/1/1 13/13/13 2/2/2
f 14/14/14 3/3/3 2/2/2 15/15/15
f 16/16/16 4/4/4 3/3/3 14/14/14
f 17/17/17 5/5/5 4/4/4 16/16/16
f 18/18/18 6/6/6 5/5/5 17/17/17
f 19/19/19 7/7/7 6/6/6 18/18/18
f 20/20/20 8/8/8 7/7/7 19/19/19
f 21/21/21 9/9/9 8/8/8 20/20/20
f 22/22/22 10/10/10 9/9/9 21/21/21
f 23/23/23 11/11/11 10/10/10 22/22/22
f 24/24/24 12/12/12 11/11/11 23/23/23
f 25/25/25 13/13/13 12/12/12 24/24/24
f 15/15/15 2/2/2 13/13/13 25/25/25
f 26/26/26 14/14/14 15/15/15 27/27/27
f 28/28/28 16/16/16 14/14/14 26/26/26
f 29/29/29 17/17/17 16/16/16 28/28/28
f 30/30/30 18/18/18 17/17/17 29/29/29
f 31/31/31 19/19/19 18/18/18 30/30/30
f 32/32/32 20/20/20 19/19/19 31/31/31
f 33/33/33 21/21/21 20/20/20 32/32/32
f 34/34/34 22/22/22 21/21/21 33/33/33
f 35/35/35 23/23/23 22/22/22 34/34/34
f 36/36/36 24/24/24 23/23/23 35/35/35
f 37/37/37 25/25/25 24/24/24 36/36/36
f 27/27/27 15/15/15 25/25/25 37/37/37
f 38/38/38 26/26/26 27/27/27 39/39/39
f 40/40/40 28/28/28 26/26/26 38/41/38
f 41/42/41 29/29/29 28/28/28 40/43/40
f 42/44/42 30/30/30 29/29/29 41/42/41
f 43/45/43 31/31/31 30/30/30 42/46/42
f 44/47/44 32/32/32 31/31/31 43/48/43
f 45/49/45 33/33/33 32/32/32 44/47/44
f 46/50/46 34/34/34 33/33/33 45/51/45
f 47/52/47 35/35/35 34/34/34 46/53/46
f 48/54/48 36/36/36 35/35/35 47/52/47
f 49/55/49 37/37/37 36/36/36 48/56/48
f 39/39/39 27/27/27 37/37/37 49/57/49
f 50/58/50 38/38/38 39/39/39 51/59/51
f 52/60/52 40/40/40 38/41/38 50/61/50
f 53/62/53 41/42/41 40/43/40 52/63/52
f 54/64/54 42/44/42 41/42/41 53/65/53
f 55/66/55 43/45/43 42/46/42 54/67/54
f 56/68/56 44/47/44 43/48/43 55/69/55
f 57/70/57 45/49/45 44/47/44 56/71/56
f 58/72/58 46/50/46 45/51/45 57/73/57
f 59/74/59 47/52/47 46/53/46 58/75/58
f 60/76/60 48/54/48 47/52/47 59/77/59
f 61/78/61 49/55/49 48/56/48 60/79/60
f 51/80/51 39/39/39 49/57/49 61/81/61
f 53/82/53 52/83/52 50/84/50 51/85/51 54/86/54
f 60/87/60 56/88/56 55/89/55 61/90/61
f 61/90/61 55/89/55 54/86/54 51/85/51
f 58/91/58 57/92/57 56/88/56 60/87/60 59/93/59
